<mxfile host="app.diagrams.net" modified="2022-07-23T17:32:56.213Z" agent="5.0 (Macintosh)" etag="XgdyNy88Y0PoNr6baILt" version="20.2.0" type="github" pages="2">
  <diagram id="1Ga8zbvGgt3Nmf2O85bt" name="Page-1">
    <mxGraphModel dx="1023" dy="1025" grid="1" gridSize="10" guides="1" tooltips="1" connect="1" arrows="1" fold="1" page="1" pageScale="1" pageWidth="850" pageHeight="1100" math="0" shadow="0">
      <root>
        <mxCell id="0" />
        <mxCell id="1" parent="0" />
        <mxCell id="FAd0rF56L1yjTuEC8MQD-1" value="&lt;font style=&quot;font-size: 36px;&quot;&gt;A&lt;/font&gt;" style="ellipse;whiteSpace=wrap;html=1;aspect=fixed;strokeWidth=3;" parent="1" vertex="1">
          <mxGeometry x="1030" y="500" width="80" height="80" as="geometry" />
        </mxCell>
        <mxCell id="FAd0rF56L1yjTuEC8MQD-2" value="&lt;font style=&quot;font-size: 36px;&quot;&gt;B&lt;/font&gt;" style="ellipse;whiteSpace=wrap;html=1;aspect=fixed;strokeWidth=3;" parent="1" vertex="1">
          <mxGeometry x="1190" y="340" width="80" height="80" as="geometry" />
        </mxCell>
        <mxCell id="FAd0rF56L1yjTuEC8MQD-3" value="&lt;font style=&quot;font-size: 36px;&quot;&gt;D&lt;/font&gt;" style="ellipse;whiteSpace=wrap;html=1;aspect=fixed;strokeWidth=3;" parent="1" vertex="1">
          <mxGeometry x="1390" y="340" width="80" height="80" as="geometry" />
        </mxCell>
        <mxCell id="FAd0rF56L1yjTuEC8MQD-4" value="&lt;div&gt;&lt;font style=&quot;font-size: 36px;&quot;&gt;C&lt;/font&gt;&lt;/div&gt;" style="ellipse;whiteSpace=wrap;html=1;aspect=fixed;strokeWidth=3;" parent="1" vertex="1">
          <mxGeometry x="1230" y="500" width="80" height="80" as="geometry" />
        </mxCell>
        <mxCell id="FAd0rF56L1yjTuEC8MQD-7" value="5" style="endArrow=classic;html=1;rounded=0;fontSize=36;entryX=0;entryY=1;entryDx=0;entryDy=0;strokeWidth=3;" parent="1" target="FAd0rF56L1yjTuEC8MQD-2" edge="1">
          <mxGeometry width="50" height="50" relative="1" as="geometry">
            <mxPoint x="1100" y="510" as="sourcePoint" />
            <mxPoint x="1150" y="460" as="targetPoint" />
          </mxGeometry>
        </mxCell>
        <mxCell id="FAd0rF56L1yjTuEC8MQD-8" value="" style="endArrow=classic;html=1;rounded=0;fontSize=36;exitX=1;exitY=0.5;exitDx=0;exitDy=0;entryX=0;entryY=0.5;entryDx=0;entryDy=0;strokeWidth=3;" parent="1" source="FAd0rF56L1yjTuEC8MQD-2" target="FAd0rF56L1yjTuEC8MQD-3" edge="1">
          <mxGeometry width="50" height="50" relative="1" as="geometry">
            <mxPoint x="560" y="160" as="sourcePoint" />
            <mxPoint x="610" y="110" as="targetPoint" />
          </mxGeometry>
        </mxCell>
        <mxCell id="B4QGeM4eLFbYq7JB9Wqx-8" value="2" style="edgeLabel;html=1;align=center;verticalAlign=middle;resizable=0;points=[];fontSize=36;" parent="FAd0rF56L1yjTuEC8MQD-8" vertex="1" connectable="0">
          <mxGeometry x="-0.2" relative="1" as="geometry">
            <mxPoint as="offset" />
          </mxGeometry>
        </mxCell>
        <mxCell id="FAd0rF56L1yjTuEC8MQD-9" value="" style="endArrow=none;html=1;rounded=0;fontSize=36;exitX=0;exitY=1;exitDx=0;exitDy=0;entryX=1;entryY=0;entryDx=0;entryDy=0;strokeWidth=3;endFill=0;startArrow=classic;startFill=1;" parent="1" source="FAd0rF56L1yjTuEC8MQD-3" target="FAd0rF56L1yjTuEC8MQD-4" edge="1">
          <mxGeometry width="50" height="50" relative="1" as="geometry">
            <mxPoint x="680" y="190" as="sourcePoint" />
            <mxPoint x="800" y="190" as="targetPoint" />
          </mxGeometry>
        </mxCell>
        <mxCell id="B4QGeM4eLFbYq7JB9Wqx-7" value="&lt;font style=&quot;font-size: 36px;&quot;&gt;6&lt;/font&gt;" style="edgeLabel;html=1;align=center;verticalAlign=middle;resizable=0;points=[];fontSize=24;" parent="FAd0rF56L1yjTuEC8MQD-9" vertex="1" connectable="0">
          <mxGeometry x="0.1547" y="-1" relative="1" as="geometry">
            <mxPoint x="-1" as="offset" />
          </mxGeometry>
        </mxCell>
        <mxCell id="FAd0rF56L1yjTuEC8MQD-11" value="3" style="endArrow=none;html=1;rounded=0;fontSize=36;entryX=1;entryY=0.5;entryDx=0;entryDy=0;strokeWidth=3;exitX=0;exitY=0.5;exitDx=0;exitDy=0;startArrow=classic;startFill=1;endFill=0;" parent="1" source="FAd0rF56L1yjTuEC8MQD-4" target="FAd0rF56L1yjTuEC8MQD-1" edge="1">
          <mxGeometry width="50" height="50" relative="1" as="geometry">
            <mxPoint x="1250" y="570.5" as="sourcePoint" />
            <mxPoint x="1370" y="570" as="targetPoint" />
          </mxGeometry>
        </mxCell>
        <mxCell id="B4QGeM4eLFbYq7JB9Wqx-1" value="&lt;div&gt;&lt;font style=&quot;font-size: 24px;&quot;&gt;Using Dijkstra&#39;s algorithm, find the shortest path from A to all other&lt;/font&gt;&lt;/div&gt;&lt;div&gt;&lt;font style=&quot;font-size: 24px;&quot;&gt;vertices in this fully connected directed and weighted graph.&lt;/font&gt;&lt;/div&gt;&lt;font style=&quot;font-size: 24px;&quot;&gt;[Imgur](https://i.imgur.com/07A2amK.png)&lt;br&gt;&lt;/font&gt;&lt;div&gt;&lt;font style=&quot;font-size: 24px;&quot;&gt;During this procedure, how many times is edge relaxation done&lt;/font&gt;&lt;/div&gt;&lt;div&gt;&lt;font style=&quot;font-size: 24px;&quot;&gt;towards vertex E? In other words, on how many occasions do we&lt;/font&gt;&lt;/div&gt;&lt;div&gt;&lt;font style=&quot;font-size: 24px;&quot;&gt;compare the current distance from A to E with a new calculated&lt;/font&gt;&lt;/div&gt;&lt;div&gt;&lt;font style=&quot;font-size: 24px;&quot;&gt;distance from A to E?&lt;/font&gt;&lt;/div&gt;&lt;font style=&quot;font-size: 24px;&quot;&gt;A) 0&lt;br&gt;B) 1&lt;br&gt;C) 2&lt;br&gt;D) 3&lt;br&gt;&lt;/font&gt;" style="text;html=1;align=left;verticalAlign=middle;resizable=0;points=[];autosize=1;strokeColor=none;fillColor=none;fontSize=36;" parent="1" vertex="1">
          <mxGeometry x="50" y="15" width="730" height="490" as="geometry" />
        </mxCell>
        <mxCell id="B4QGeM4eLFbYq7JB9Wqx-2" value="&lt;font style=&quot;font-size: 36px;&quot;&gt;E&lt;/font&gt;" style="ellipse;whiteSpace=wrap;html=1;aspect=fixed;strokeWidth=3;" parent="1" vertex="1">
          <mxGeometry x="1510" y="500" width="80" height="80" as="geometry" />
        </mxCell>
        <mxCell id="B4QGeM4eLFbYq7JB9Wqx-3" value="" style="endArrow=classic;html=1;rounded=0;fontSize=36;exitX=1;exitY=0.5;exitDx=0;exitDy=0;entryX=0;entryY=0.5;entryDx=0;entryDy=0;strokeWidth=3;" parent="1" source="FAd0rF56L1yjTuEC8MQD-4" target="B4QGeM4eLFbYq7JB9Wqx-2" edge="1">
          <mxGeometry width="50" height="50" relative="1" as="geometry">
            <mxPoint x="1280" y="390" as="sourcePoint" />
            <mxPoint x="1400" y="390" as="targetPoint" />
          </mxGeometry>
        </mxCell>
        <mxCell id="B4QGeM4eLFbYq7JB9Wqx-9" value="8" style="edgeLabel;html=1;align=center;verticalAlign=middle;resizable=0;points=[];fontSize=36;" parent="B4QGeM4eLFbYq7JB9Wqx-3" vertex="1" connectable="0">
          <mxGeometry x="-0.02" relative="1" as="geometry">
            <mxPoint as="offset" />
          </mxGeometry>
        </mxCell>
        <mxCell id="B4QGeM4eLFbYq7JB9Wqx-5" value="" style="endArrow=none;html=1;rounded=0;fontSize=36;entryX=1;entryY=1;entryDx=0;entryDy=0;strokeWidth=3;endFill=0;startArrow=classic;startFill=1;exitX=0.225;exitY=0.063;exitDx=0;exitDy=0;exitPerimeter=0;" parent="1" source="B4QGeM4eLFbYq7JB9Wqx-2" target="FAd0rF56L1yjTuEC8MQD-3" edge="1">
          <mxGeometry width="50" height="50" relative="1" as="geometry">
            <mxPoint x="691.7157287525379" y="401.71572875253787" as="sourcePoint" />
            <mxPoint x="598.2842712474621" y="251.71572875253787" as="targetPoint" />
          </mxGeometry>
        </mxCell>
        <mxCell id="B4QGeM4eLFbYq7JB9Wqx-10" value="3" style="edgeLabel;html=1;align=center;verticalAlign=middle;resizable=0;points=[];fontSize=36;" parent="B4QGeM4eLFbYq7JB9Wqx-5" vertex="1" connectable="0">
          <mxGeometry x="0.067" y="1" relative="1" as="geometry">
            <mxPoint as="offset" />
          </mxGeometry>
        </mxCell>
        <mxCell id="d57B6ffoJgKzHM2q1JgH-1" value="&lt;font style=&quot;font-size: 36px;&quot;&gt;A&lt;/font&gt;" style="ellipse;whiteSpace=wrap;html=1;aspect=fixed;strokeWidth=3;" vertex="1" parent="1">
          <mxGeometry x="1030" y="880" width="80" height="80" as="geometry" />
        </mxCell>
        <mxCell id="d57B6ffoJgKzHM2q1JgH-2" value="&lt;font style=&quot;font-size: 36px;&quot;&gt;B&lt;/font&gt;" style="ellipse;whiteSpace=wrap;html=1;aspect=fixed;strokeWidth=3;" vertex="1" parent="1">
          <mxGeometry x="1230" y="880" width="80" height="80" as="geometry" />
        </mxCell>
        <mxCell id="d57B6ffoJgKzHM2q1JgH-3" value="&lt;font style=&quot;font-size: 36px;&quot;&gt;D&lt;/font&gt;" style="ellipse;whiteSpace=wrap;html=1;aspect=fixed;strokeWidth=3;" vertex="1" parent="1">
          <mxGeometry x="1290" y="620" width="80" height="80" as="geometry" />
        </mxCell>
        <mxCell id="d57B6ffoJgKzHM2q1JgH-4" value="&lt;div&gt;&lt;font style=&quot;font-size: 36px;&quot;&gt;C&lt;/font&gt;&lt;/div&gt;" style="ellipse;whiteSpace=wrap;html=1;aspect=fixed;strokeWidth=3;" vertex="1" parent="1">
          <mxGeometry x="1170" y="740" width="80" height="80" as="geometry" />
        </mxCell>
        <mxCell id="d57B6ffoJgKzHM2q1JgH-5" value="5" style="endArrow=classic;html=1;rounded=0;fontSize=36;entryX=0;entryY=0.5;entryDx=0;entryDy=0;strokeWidth=3;exitX=1;exitY=0.5;exitDx=0;exitDy=0;" edge="1" parent="1" target="d57B6ffoJgKzHM2q1JgH-2" source="d57B6ffoJgKzHM2q1JgH-1">
          <mxGeometry width="50" height="50" relative="1" as="geometry">
            <mxPoint x="1100" y="810" as="sourcePoint" />
            <mxPoint x="1150" y="760" as="targetPoint" />
          </mxGeometry>
        </mxCell>
        <mxCell id="d57B6ffoJgKzHM2q1JgH-6" value="" style="endArrow=classic;html=1;rounded=0;fontSize=36;exitX=1;exitY=0;exitDx=0;exitDy=0;entryX=0;entryY=1;entryDx=0;entryDy=0;strokeWidth=3;" edge="1" parent="1" source="d57B6ffoJgKzHM2q1JgH-2" target="d57B6ffoJgKzHM2q1JgH-11">
          <mxGeometry width="50" height="50" relative="1" as="geometry">
            <mxPoint x="1270" y="730" as="sourcePoint" />
            <mxPoint x="1320" y="680" as="targetPoint" />
          </mxGeometry>
        </mxCell>
        <mxCell id="d57B6ffoJgKzHM2q1JgH-7" value="2" style="edgeLabel;html=1;align=center;verticalAlign=middle;resizable=0;points=[];fontSize=36;" vertex="1" connectable="0" parent="d57B6ffoJgKzHM2q1JgH-6">
          <mxGeometry x="-0.2" relative="1" as="geometry">
            <mxPoint as="offset" />
          </mxGeometry>
        </mxCell>
        <mxCell id="d57B6ffoJgKzHM2q1JgH-8" value="" style="endArrow=none;html=1;rounded=0;fontSize=36;exitX=0;exitY=0.5;exitDx=0;exitDy=0;entryX=1;entryY=0;entryDx=0;entryDy=0;strokeWidth=3;endFill=0;startArrow=classic;startFill=1;" edge="1" parent="1" source="d57B6ffoJgKzHM2q1JgH-3" target="d57B6ffoJgKzHM2q1JgH-4">
          <mxGeometry width="50" height="50" relative="1" as="geometry">
            <mxPoint x="1390" y="760" as="sourcePoint" />
            <mxPoint x="1510" y="760" as="targetPoint" />
          </mxGeometry>
        </mxCell>
        <mxCell id="d57B6ffoJgKzHM2q1JgH-9" value="&lt;font style=&quot;font-size: 36px;&quot;&gt;6&lt;/font&gt;" style="edgeLabel;html=1;align=center;verticalAlign=middle;resizable=0;points=[];fontSize=24;" vertex="1" connectable="0" parent="d57B6ffoJgKzHM2q1JgH-8">
          <mxGeometry x="0.1547" y="-1" relative="1" as="geometry">
            <mxPoint x="-1" as="offset" />
          </mxGeometry>
        </mxCell>
        <mxCell id="d57B6ffoJgKzHM2q1JgH-10" value="3" style="endArrow=none;html=1;rounded=0;fontSize=36;entryX=1;entryY=0;entryDx=0;entryDy=0;strokeWidth=3;exitX=0;exitY=1;exitDx=0;exitDy=0;startArrow=classic;startFill=1;endFill=0;" edge="1" parent="1" source="d57B6ffoJgKzHM2q1JgH-4" target="d57B6ffoJgKzHM2q1JgH-1">
          <mxGeometry width="50" height="50" relative="1" as="geometry">
            <mxPoint x="1250" y="870.5" as="sourcePoint" />
            <mxPoint x="1370" y="870" as="targetPoint" />
          </mxGeometry>
        </mxCell>
        <mxCell id="d57B6ffoJgKzHM2q1JgH-11" value="&lt;font style=&quot;font-size: 36px;&quot;&gt;E&lt;/font&gt;" style="ellipse;whiteSpace=wrap;html=1;aspect=fixed;strokeWidth=3;" vertex="1" parent="1">
          <mxGeometry x="1370" y="740" width="80" height="80" as="geometry" />
        </mxCell>
        <mxCell id="d57B6ffoJgKzHM2q1JgH-12" value="" style="endArrow=classic;html=1;rounded=0;fontSize=36;exitX=1;exitY=0.5;exitDx=0;exitDy=0;entryX=0;entryY=0.5;entryDx=0;entryDy=0;strokeWidth=3;" edge="1" parent="1" source="d57B6ffoJgKzHM2q1JgH-4" target="d57B6ffoJgKzHM2q1JgH-11">
          <mxGeometry width="50" height="50" relative="1" as="geometry">
            <mxPoint x="1280" y="690" as="sourcePoint" />
            <mxPoint x="1400" y="690" as="targetPoint" />
          </mxGeometry>
        </mxCell>
        <mxCell id="d57B6ffoJgKzHM2q1JgH-13" value="8" style="edgeLabel;html=1;align=center;verticalAlign=middle;resizable=0;points=[];fontSize=36;" vertex="1" connectable="0" parent="d57B6ffoJgKzHM2q1JgH-12">
          <mxGeometry x="-0.02" relative="1" as="geometry">
            <mxPoint as="offset" />
          </mxGeometry>
        </mxCell>
        <mxCell id="d57B6ffoJgKzHM2q1JgH-14" value="" style="endArrow=none;html=1;rounded=0;fontSize=36;entryX=1;entryY=1;entryDx=0;entryDy=0;strokeWidth=3;endFill=0;startArrow=classic;startFill=1;exitX=0;exitY=0;exitDx=0;exitDy=0;" edge="1" parent="1" source="d57B6ffoJgKzHM2q1JgH-11" target="d57B6ffoJgKzHM2q1JgH-3">
          <mxGeometry width="50" height="50" relative="1" as="geometry">
            <mxPoint x="1401.7157287525379" y="971.7157287525379" as="sourcePoint" />
            <mxPoint x="1308.2842712474621" y="821.7157287525379" as="targetPoint" />
          </mxGeometry>
        </mxCell>
        <mxCell id="d57B6ffoJgKzHM2q1JgH-15" value="3" style="edgeLabel;html=1;align=center;verticalAlign=middle;resizable=0;points=[];fontSize=36;" vertex="1" connectable="0" parent="d57B6ffoJgKzHM2q1JgH-14">
          <mxGeometry x="0.067" y="1" relative="1" as="geometry">
            <mxPoint as="offset" />
          </mxGeometry>
        </mxCell>
        <mxCell id="d57B6ffoJgKzHM2q1JgH-16" value="&lt;font style=&quot;font-size: 36px;&quot;&gt;A&lt;/font&gt;" style="ellipse;whiteSpace=wrap;html=1;aspect=fixed;strokeWidth=3;" vertex="1" parent="1">
          <mxGeometry x="1030" y="1200" width="80" height="80" as="geometry" />
        </mxCell>
        <mxCell id="d57B6ffoJgKzHM2q1JgH-17" value="&lt;font style=&quot;font-size: 36px;&quot;&gt;B&lt;/font&gt;" style="ellipse;whiteSpace=wrap;html=1;aspect=fixed;strokeWidth=3;" vertex="1" parent="1">
          <mxGeometry x="1230" y="1020" width="80" height="80" as="geometry" />
        </mxCell>
        <mxCell id="d57B6ffoJgKzHM2q1JgH-18" value="&lt;font style=&quot;font-size: 36px;&quot;&gt;E&lt;/font&gt;" style="ellipse;whiteSpace=wrap;html=1;aspect=fixed;strokeWidth=3;" vertex="1" parent="1">
          <mxGeometry x="1470" y="1020" width="80" height="80" as="geometry" />
        </mxCell>
        <mxCell id="d57B6ffoJgKzHM2q1JgH-19" value="&lt;div&gt;&lt;font style=&quot;font-size: 36px;&quot;&gt;C&lt;/font&gt;&lt;/div&gt;" style="ellipse;whiteSpace=wrap;html=1;aspect=fixed;strokeWidth=3;" vertex="1" parent="1">
          <mxGeometry x="1230" y="1200" width="80" height="80" as="geometry" />
        </mxCell>
        <mxCell id="d57B6ffoJgKzHM2q1JgH-20" value="5" style="endArrow=classic;html=1;rounded=0;fontSize=36;entryX=0;entryY=1;entryDx=0;entryDy=0;strokeWidth=3;" edge="1" parent="1" target="d57B6ffoJgKzHM2q1JgH-17">
          <mxGeometry width="50" height="50" relative="1" as="geometry">
            <mxPoint x="1100" y="1210" as="sourcePoint" />
            <mxPoint x="1150" y="1160" as="targetPoint" />
          </mxGeometry>
        </mxCell>
        <mxCell id="d57B6ffoJgKzHM2q1JgH-21" value="" style="endArrow=classic;html=1;rounded=0;fontSize=36;exitX=1;exitY=0.5;exitDx=0;exitDy=0;entryX=0;entryY=0.5;entryDx=0;entryDy=0;strokeWidth=3;" edge="1" parent="1" source="d57B6ffoJgKzHM2q1JgH-17" target="d57B6ffoJgKzHM2q1JgH-18">
          <mxGeometry width="50" height="50" relative="1" as="geometry">
            <mxPoint x="1270" y="1130" as="sourcePoint" />
            <mxPoint x="1320" y="1080" as="targetPoint" />
          </mxGeometry>
        </mxCell>
        <mxCell id="d57B6ffoJgKzHM2q1JgH-22" value="2" style="edgeLabel;html=1;align=center;verticalAlign=middle;resizable=0;points=[];fontSize=36;" vertex="1" connectable="0" parent="d57B6ffoJgKzHM2q1JgH-21">
          <mxGeometry x="-0.2" relative="1" as="geometry">
            <mxPoint as="offset" />
          </mxGeometry>
        </mxCell>
        <mxCell id="d57B6ffoJgKzHM2q1JgH-23" value="" style="endArrow=none;html=1;rounded=0;fontSize=36;exitX=0;exitY=1;exitDx=0;exitDy=0;entryX=1;entryY=0;entryDx=0;entryDy=0;strokeWidth=3;endFill=0;startArrow=classic;startFill=1;" edge="1" parent="1" source="d57B6ffoJgKzHM2q1JgH-18" target="d57B6ffoJgKzHM2q1JgH-19">
          <mxGeometry width="50" height="50" relative="1" as="geometry">
            <mxPoint x="1390" y="1160" as="sourcePoint" />
            <mxPoint x="1510" y="1160" as="targetPoint" />
          </mxGeometry>
        </mxCell>
        <mxCell id="d57B6ffoJgKzHM2q1JgH-24" value="&lt;font style=&quot;font-size: 36px;&quot;&gt;6&lt;/font&gt;" style="edgeLabel;html=1;align=center;verticalAlign=middle;resizable=0;points=[];fontSize=24;" vertex="1" connectable="0" parent="d57B6ffoJgKzHM2q1JgH-23">
          <mxGeometry x="0.1547" y="-1" relative="1" as="geometry">
            <mxPoint x="-1" as="offset" />
          </mxGeometry>
        </mxCell>
        <mxCell id="d57B6ffoJgKzHM2q1JgH-25" value="3" style="endArrow=none;html=1;rounded=0;fontSize=36;entryX=1;entryY=0.5;entryDx=0;entryDy=0;strokeWidth=3;exitX=0;exitY=0.5;exitDx=0;exitDy=0;startArrow=classic;startFill=1;endFill=0;" edge="1" parent="1" source="d57B6ffoJgKzHM2q1JgH-19" target="d57B6ffoJgKzHM2q1JgH-16">
          <mxGeometry width="50" height="50" relative="1" as="geometry">
            <mxPoint x="1250" y="1270.5" as="sourcePoint" />
            <mxPoint x="1370" y="1270" as="targetPoint" />
          </mxGeometry>
        </mxCell>
        <mxCell id="d57B6ffoJgKzHM2q1JgH-26" value="&lt;font style=&quot;font-size: 36px;&quot;&gt;D&lt;/font&gt;" style="ellipse;whiteSpace=wrap;html=1;aspect=fixed;strokeWidth=3;" vertex="1" parent="1">
          <mxGeometry x="1470" y="1200" width="80" height="80" as="geometry" />
        </mxCell>
        <mxCell id="d57B6ffoJgKzHM2q1JgH-27" value="" style="endArrow=classic;html=1;rounded=0;fontSize=36;exitX=1;exitY=0.5;exitDx=0;exitDy=0;entryX=0;entryY=0.5;entryDx=0;entryDy=0;strokeWidth=3;" edge="1" parent="1" source="d57B6ffoJgKzHM2q1JgH-19" target="d57B6ffoJgKzHM2q1JgH-26">
          <mxGeometry width="50" height="50" relative="1" as="geometry">
            <mxPoint x="1280" y="1090" as="sourcePoint" />
            <mxPoint x="1400" y="1090" as="targetPoint" />
          </mxGeometry>
        </mxCell>
        <mxCell id="d57B6ffoJgKzHM2q1JgH-28" value="1" style="edgeLabel;html=1;align=center;verticalAlign=middle;resizable=0;points=[];fontSize=36;" vertex="1" connectable="0" parent="d57B6ffoJgKzHM2q1JgH-27">
          <mxGeometry x="-0.02" relative="1" as="geometry">
            <mxPoint as="offset" />
          </mxGeometry>
        </mxCell>
        <mxCell id="d57B6ffoJgKzHM2q1JgH-29" value="" style="endArrow=classic;html=1;rounded=0;fontSize=36;entryX=0.5;entryY=1;entryDx=0;entryDy=0;strokeWidth=3;endFill=1;startArrow=none;startFill=0;exitX=0.5;exitY=0;exitDx=0;exitDy=0;" edge="1" parent="1" source="d57B6ffoJgKzHM2q1JgH-26" target="d57B6ffoJgKzHM2q1JgH-18">
          <mxGeometry width="50" height="50" relative="1" as="geometry">
            <mxPoint x="1401.7157287525379" y="1371.7157287525379" as="sourcePoint" />
            <mxPoint x="1308.2842712474621" y="1221.7157287525379" as="targetPoint" />
          </mxGeometry>
        </mxCell>
        <mxCell id="d57B6ffoJgKzHM2q1JgH-30" value="4" style="edgeLabel;html=1;align=center;verticalAlign=middle;resizable=0;points=[];fontSize=36;" vertex="1" connectable="0" parent="d57B6ffoJgKzHM2q1JgH-29">
          <mxGeometry x="0.067" y="1" relative="1" as="geometry">
            <mxPoint as="offset" />
          </mxGeometry>
        </mxCell>
        <mxCell id="d57B6ffoJgKzHM2q1JgH-31" value="&lt;font style=&quot;font-size: 36px;&quot;&gt;A&lt;/font&gt;" style="ellipse;whiteSpace=wrap;html=1;aspect=fixed;strokeWidth=3;" vertex="1" parent="1">
          <mxGeometry x="180" y="530" width="80" height="80" as="geometry" />
        </mxCell>
        <mxCell id="d57B6ffoJgKzHM2q1JgH-32" value="&lt;font style=&quot;font-size: 36px;&quot;&gt;B&lt;/font&gt;" style="ellipse;whiteSpace=wrap;html=1;aspect=fixed;strokeWidth=3;" vertex="1" parent="1">
          <mxGeometry x="380" y="350" width="80" height="80" as="geometry" />
        </mxCell>
        <mxCell id="d57B6ffoJgKzHM2q1JgH-33" value="&lt;font style=&quot;font-size: 36px;&quot;&gt;E&lt;/font&gt;" style="ellipse;whiteSpace=wrap;html=1;aspect=fixed;strokeWidth=3;" vertex="1" parent="1">
          <mxGeometry x="620" y="350" width="80" height="80" as="geometry" />
        </mxCell>
        <mxCell id="d57B6ffoJgKzHM2q1JgH-34" value="&lt;div&gt;&lt;font style=&quot;font-size: 36px;&quot;&gt;C&lt;/font&gt;&lt;/div&gt;" style="ellipse;whiteSpace=wrap;html=1;aspect=fixed;strokeWidth=3;" vertex="1" parent="1">
          <mxGeometry x="380" y="530" width="80" height="80" as="geometry" />
        </mxCell>
        <mxCell id="d57B6ffoJgKzHM2q1JgH-35" value="5" style="endArrow=classic;html=1;rounded=0;fontSize=36;entryX=0;entryY=1;entryDx=0;entryDy=0;strokeWidth=3;" edge="1" parent="1" target="d57B6ffoJgKzHM2q1JgH-32">
          <mxGeometry width="50" height="50" relative="1" as="geometry">
            <mxPoint x="250" y="540" as="sourcePoint" />
            <mxPoint x="300" y="490" as="targetPoint" />
          </mxGeometry>
        </mxCell>
        <mxCell id="d57B6ffoJgKzHM2q1JgH-36" value="" style="endArrow=classic;html=1;rounded=0;fontSize=36;exitX=1;exitY=0.5;exitDx=0;exitDy=0;entryX=0;entryY=0.5;entryDx=0;entryDy=0;strokeWidth=3;" edge="1" parent="1" source="d57B6ffoJgKzHM2q1JgH-32" target="d57B6ffoJgKzHM2q1JgH-33">
          <mxGeometry width="50" height="50" relative="1" as="geometry">
            <mxPoint x="420" y="460" as="sourcePoint" />
            <mxPoint x="470" y="410" as="targetPoint" />
          </mxGeometry>
        </mxCell>
        <mxCell id="d57B6ffoJgKzHM2q1JgH-37" value="1" style="edgeLabel;html=1;align=center;verticalAlign=middle;resizable=0;points=[];fontSize=36;" vertex="1" connectable="0" parent="d57B6ffoJgKzHM2q1JgH-36">
          <mxGeometry x="-0.2" relative="1" as="geometry">
            <mxPoint as="offset" />
          </mxGeometry>
        </mxCell>
        <mxCell id="d57B6ffoJgKzHM2q1JgH-38" value="" style="endArrow=none;html=1;rounded=0;fontSize=36;exitX=0;exitY=1;exitDx=0;exitDy=0;entryX=1;entryY=0;entryDx=0;entryDy=0;strokeWidth=3;endFill=0;startArrow=classic;startFill=1;" edge="1" parent="1" source="d57B6ffoJgKzHM2q1JgH-33" target="d57B6ffoJgKzHM2q1JgH-34">
          <mxGeometry width="50" height="50" relative="1" as="geometry">
            <mxPoint x="540" y="490" as="sourcePoint" />
            <mxPoint x="660" y="490" as="targetPoint" />
          </mxGeometry>
        </mxCell>
        <mxCell id="d57B6ffoJgKzHM2q1JgH-39" value="&lt;font style=&quot;font-size: 36px;&quot;&gt;7&lt;/font&gt;" style="edgeLabel;html=1;align=center;verticalAlign=middle;resizable=0;points=[];fontSize=24;" vertex="1" connectable="0" parent="d57B6ffoJgKzHM2q1JgH-38">
          <mxGeometry x="0.1547" y="-1" relative="1" as="geometry">
            <mxPoint x="-1" as="offset" />
          </mxGeometry>
        </mxCell>
        <mxCell id="d57B6ffoJgKzHM2q1JgH-40" value="3" style="endArrow=none;html=1;rounded=0;fontSize=36;entryX=1;entryY=0.5;entryDx=0;entryDy=0;strokeWidth=3;exitX=0;exitY=0.5;exitDx=0;exitDy=0;startArrow=classic;startFill=1;endFill=0;" edge="1" parent="1" source="d57B6ffoJgKzHM2q1JgH-34" target="d57B6ffoJgKzHM2q1JgH-31">
          <mxGeometry width="50" height="50" relative="1" as="geometry">
            <mxPoint x="400" y="600.5" as="sourcePoint" />
            <mxPoint x="520" y="600" as="targetPoint" />
          </mxGeometry>
        </mxCell>
        <mxCell id="d57B6ffoJgKzHM2q1JgH-41" value="&lt;font style=&quot;font-size: 36px;&quot;&gt;D&lt;/font&gt;" style="ellipse;whiteSpace=wrap;html=1;aspect=fixed;strokeWidth=3;" vertex="1" parent="1">
          <mxGeometry x="620" y="530" width="80" height="80" as="geometry" />
        </mxCell>
        <mxCell id="d57B6ffoJgKzHM2q1JgH-42" value="" style="endArrow=classic;html=1;rounded=0;fontSize=36;exitX=1;exitY=0.5;exitDx=0;exitDy=0;entryX=0;entryY=0.5;entryDx=0;entryDy=0;strokeWidth=3;" edge="1" parent="1" source="d57B6ffoJgKzHM2q1JgH-34" target="d57B6ffoJgKzHM2q1JgH-41">
          <mxGeometry width="50" height="50" relative="1" as="geometry">
            <mxPoint x="430" y="420" as="sourcePoint" />
            <mxPoint x="550" y="420" as="targetPoint" />
          </mxGeometry>
        </mxCell>
        <mxCell id="d57B6ffoJgKzHM2q1JgH-43" value="4" style="edgeLabel;html=1;align=center;verticalAlign=middle;resizable=0;points=[];fontSize=36;" vertex="1" connectable="0" parent="d57B6ffoJgKzHM2q1JgH-42">
          <mxGeometry x="-0.02" relative="1" as="geometry">
            <mxPoint x="1" as="offset" />
          </mxGeometry>
        </mxCell>
        <mxCell id="d57B6ffoJgKzHM2q1JgH-44" value="" style="endArrow=classic;html=1;rounded=0;fontSize=36;entryX=0.5;entryY=1;entryDx=0;entryDy=0;strokeWidth=3;endFill=1;startArrow=none;startFill=0;exitX=0.5;exitY=0;exitDx=0;exitDy=0;" edge="1" parent="1" source="d57B6ffoJgKzHM2q1JgH-41" target="d57B6ffoJgKzHM2q1JgH-33">
          <mxGeometry width="50" height="50" relative="1" as="geometry">
            <mxPoint x="551.7157287525379" y="701.7157287525379" as="sourcePoint" />
            <mxPoint x="458.28427124746213" y="551.7157287525379" as="targetPoint" />
          </mxGeometry>
        </mxCell>
        <mxCell id="d57B6ffoJgKzHM2q1JgH-45" value="2" style="edgeLabel;html=1;align=center;verticalAlign=middle;resizable=0;points=[];fontSize=36;" vertex="1" connectable="0" parent="d57B6ffoJgKzHM2q1JgH-44">
          <mxGeometry x="0.067" y="1" relative="1" as="geometry">
            <mxPoint as="offset" />
          </mxGeometry>
        </mxCell>
      </root>
    </mxGraphModel>
  </diagram>
  <diagram id="JmoNJ7C2lcoynI0snVXa" name="Page-2">
    <mxGraphModel dx="819" dy="-280" grid="1" gridSize="10" guides="1" tooltips="1" connect="1" arrows="1" fold="1" page="1" pageScale="1" pageWidth="850" pageHeight="1100" math="0" shadow="0">
      <root>
        <mxCell id="0" />
        <mxCell id="1" parent="0" />
        <mxCell id="PEIeerV-qxNK25OdBMyH-1" value="&lt;font style=&quot;font-size: 36px;&quot;&gt;A&lt;/font&gt;" style="ellipse;whiteSpace=wrap;html=1;aspect=fixed;strokeWidth=3;" vertex="1" parent="1">
          <mxGeometry x="970" y="1480" width="80" height="80" as="geometry" />
        </mxCell>
        <mxCell id="PEIeerV-qxNK25OdBMyH-2" value="&lt;font style=&quot;font-size: 36px;&quot;&gt;B&lt;/font&gt;" style="ellipse;whiteSpace=wrap;html=1;aspect=fixed;strokeWidth=3;" vertex="1" parent="1">
          <mxGeometry x="1090" y="1360" width="80" height="80" as="geometry" />
        </mxCell>
        <mxCell id="PEIeerV-qxNK25OdBMyH-3" value="&lt;font style=&quot;font-size: 36px;&quot;&gt;E&lt;/font&gt;" style="ellipse;whiteSpace=wrap;html=1;aspect=fixed;strokeWidth=3;" vertex="1" parent="1">
          <mxGeometry x="1330" y="1360" width="80" height="80" as="geometry" />
        </mxCell>
        <mxCell id="PEIeerV-qxNK25OdBMyH-4" value="&lt;div&gt;&lt;font style=&quot;font-size: 36px;&quot;&gt;C&lt;/font&gt;&lt;/div&gt;" style="ellipse;whiteSpace=wrap;html=1;aspect=fixed;strokeWidth=3;" vertex="1" parent="1">
          <mxGeometry x="1090" y="1600" width="80" height="80" as="geometry" />
        </mxCell>
        <mxCell id="PEIeerV-qxNK25OdBMyH-5" value="2" style="endArrow=none;html=1;rounded=0;fontSize=36;strokeWidth=3;exitX=1;exitY=0;exitDx=0;exitDy=0;entryX=0;entryY=1;entryDx=0;entryDy=0;endFill=0;startArrow=none;startFill=0;" edge="1" parent="1" target="PEIeerV-qxNK25OdBMyH-2" source="PEIeerV-qxNK25OdBMyH-1">
          <mxGeometry width="50" height="50" relative="1" as="geometry">
            <mxPoint x="960" y="1610" as="sourcePoint" />
            <mxPoint x="1080" y="1520" as="targetPoint" />
          </mxGeometry>
        </mxCell>
        <mxCell id="PEIeerV-qxNK25OdBMyH-6" value="" style="endArrow=none;html=1;rounded=0;fontSize=36;exitX=1;exitY=0.5;exitDx=0;exitDy=0;entryX=0;entryY=0.5;entryDx=0;entryDy=0;strokeWidth=3;endFill=0;startArrow=none;startFill=0;" edge="1" parent="1" source="PEIeerV-qxNK25OdBMyH-2" target="PEIeerV-qxNK25OdBMyH-3">
          <mxGeometry width="50" height="50" relative="1" as="geometry">
            <mxPoint x="1130" y="1470" as="sourcePoint" />
            <mxPoint x="1180" y="1420" as="targetPoint" />
          </mxGeometry>
        </mxCell>
        <mxCell id="PEIeerV-qxNK25OdBMyH-7" value="1" style="edgeLabel;html=1;align=center;verticalAlign=middle;resizable=0;points=[];fontSize=36;" vertex="1" connectable="0" parent="PEIeerV-qxNK25OdBMyH-6">
          <mxGeometry x="-0.2" relative="1" as="geometry">
            <mxPoint as="offset" />
          </mxGeometry>
        </mxCell>
        <mxCell id="PEIeerV-qxNK25OdBMyH-10" value="7" style="endArrow=none;html=1;rounded=0;fontSize=36;entryX=1;entryY=1;entryDx=0;entryDy=0;strokeWidth=3;exitX=0;exitY=0;exitDx=0;exitDy=0;startArrow=none;startFill=0;endFill=0;" edge="1" parent="1" source="PEIeerV-qxNK25OdBMyH-4" target="PEIeerV-qxNK25OdBMyH-1">
          <mxGeometry width="50" height="50" relative="1" as="geometry">
            <mxPoint x="1110" y="1670.5" as="sourcePoint" />
            <mxPoint x="1230" y="1670" as="targetPoint" />
          </mxGeometry>
        </mxCell>
        <mxCell id="PEIeerV-qxNK25OdBMyH-11" value="&lt;font style=&quot;font-size: 36px;&quot;&gt;D&lt;/font&gt;" style="ellipse;whiteSpace=wrap;html=1;aspect=fixed;strokeWidth=3;" vertex="1" parent="1">
          <mxGeometry x="1330" y="1600" width="80" height="80" as="geometry" />
        </mxCell>
        <mxCell id="PEIeerV-qxNK25OdBMyH-12" value="" style="endArrow=none;html=1;rounded=0;fontSize=36;exitX=1;exitY=0.5;exitDx=0;exitDy=0;entryX=0;entryY=0.5;entryDx=0;entryDy=0;strokeWidth=3;endFill=0;startArrow=none;startFill=0;" edge="1" parent="1" source="PEIeerV-qxNK25OdBMyH-4" target="PEIeerV-qxNK25OdBMyH-11">
          <mxGeometry width="50" height="50" relative="1" as="geometry">
            <mxPoint x="1140" y="1490" as="sourcePoint" />
            <mxPoint x="1260" y="1490" as="targetPoint" />
          </mxGeometry>
        </mxCell>
        <mxCell id="PEIeerV-qxNK25OdBMyH-13" value="5" style="edgeLabel;html=1;align=center;verticalAlign=middle;resizable=0;points=[];fontSize=36;" vertex="1" connectable="0" parent="PEIeerV-qxNK25OdBMyH-12">
          <mxGeometry x="-0.02" relative="1" as="geometry">
            <mxPoint x="1" as="offset" />
          </mxGeometry>
        </mxCell>
        <mxCell id="PEIeerV-qxNK25OdBMyH-14" value="" style="endArrow=none;html=1;rounded=0;fontSize=36;entryX=0.5;entryY=1;entryDx=0;entryDy=0;strokeWidth=3;endFill=0;startArrow=none;startFill=0;exitX=0.5;exitY=0;exitDx=0;exitDy=0;" edge="1" parent="1" source="PEIeerV-qxNK25OdBMyH-11" target="PEIeerV-qxNK25OdBMyH-3">
          <mxGeometry width="50" height="50" relative="1" as="geometry">
            <mxPoint x="1261.7157287525379" y="1771.7157287525379" as="sourcePoint" />
            <mxPoint x="1168.2842712474621" y="1621.7157287525379" as="targetPoint" />
          </mxGeometry>
        </mxCell>
        <mxCell id="PEIeerV-qxNK25OdBMyH-15" value="6" style="edgeLabel;html=1;align=center;verticalAlign=middle;resizable=0;points=[];fontSize=36;" vertex="1" connectable="0" parent="PEIeerV-qxNK25OdBMyH-14">
          <mxGeometry x="0.067" y="1" relative="1" as="geometry">
            <mxPoint as="offset" />
          </mxGeometry>
        </mxCell>
        <mxCell id="PEIeerV-qxNK25OdBMyH-16" value="&lt;font style=&quot;font-size: 36px;&quot;&gt;A&lt;/font&gt;" style="ellipse;whiteSpace=wrap;html=1;aspect=fixed;strokeWidth=3;" vertex="1" parent="1">
          <mxGeometry x="1210" y="1480" width="80" height="80" as="geometry" />
        </mxCell>
        <mxCell id="PEIeerV-qxNK25OdBMyH-18" value="3" style="endArrow=none;html=1;rounded=0;fontSize=36;entryX=1;entryY=1;entryDx=0;entryDy=0;strokeWidth=3;exitX=0;exitY=0;exitDx=0;exitDy=0;startArrow=none;startFill=0;endFill=0;" edge="1" parent="1" source="PEIeerV-qxNK25OdBMyH-16" target="PEIeerV-qxNK25OdBMyH-2">
          <mxGeometry width="50" height="50" relative="1" as="geometry">
            <mxPoint x="1183.4357287525404" y="1533.4357287525402" as="sourcePoint" />
            <mxPoint x="1120.004271247462" y="1470.004271247462" as="targetPoint" />
          </mxGeometry>
        </mxCell>
        <mxCell id="PEIeerV-qxNK25OdBMyH-19" value="5" style="endArrow=none;html=1;rounded=0;fontSize=36;entryX=1;entryY=1;entryDx=0;entryDy=0;strokeWidth=3;exitX=0;exitY=0;exitDx=0;exitDy=0;startArrow=none;startFill=0;endFill=0;" edge="1" parent="1" source="PEIeerV-qxNK25OdBMyH-11" target="PEIeerV-qxNK25OdBMyH-16">
          <mxGeometry width="50" height="50" relative="1" as="geometry">
            <mxPoint x="1313.4357287525404" y="1633.4357287525402" as="sourcePoint" />
            <mxPoint x="1250.0042712474597" y="1570.0042712474597" as="targetPoint" />
          </mxGeometry>
        </mxCell>
        <mxCell id="PEIeerV-qxNK25OdBMyH-20" value="8" style="endArrow=none;html=1;rounded=0;fontSize=36;entryX=0;entryY=1;entryDx=0;entryDy=0;strokeWidth=3;exitX=1;exitY=0;exitDx=0;exitDy=0;startArrow=none;startFill=0;endFill=0;" edge="1" parent="1" source="PEIeerV-qxNK25OdBMyH-4" target="PEIeerV-qxNK25OdBMyH-16">
          <mxGeometry width="50" height="50" relative="1" as="geometry">
            <mxPoint x="1193.8157287525428" y="1623.0557287525426" as="sourcePoint" />
            <mxPoint x="1130.0046673261863" y="1559.9988475241912" as="targetPoint" />
          </mxGeometry>
        </mxCell>
        <mxCell id="PEIeerV-qxNK25OdBMyH-21" value="4" style="endArrow=none;html=1;rounded=0;fontSize=36;entryX=0;entryY=1;entryDx=0;entryDy=0;strokeWidth=3;exitX=1;exitY=0;exitDx=0;exitDy=0;startArrow=none;startFill=0;endFill=0;" edge="1" parent="1" source="PEIeerV-qxNK25OdBMyH-16" target="PEIeerV-qxNK25OdBMyH-3">
          <mxGeometry width="50" height="50" relative="1" as="geometry">
            <mxPoint x="1310.0042712474597" y="1533.4357287525406" as="sourcePoint" />
            <mxPoint x="1373.4357287525404" y="1470.0042712474597" as="targetPoint" />
          </mxGeometry>
        </mxCell>
        <mxCell id="PEIeerV-qxNK25OdBMyH-22" value="4" style="endArrow=none;html=1;rounded=0;fontSize=36;entryX=0;entryY=0.5;entryDx=0;entryDy=0;strokeWidth=3;exitX=1;exitY=0.5;exitDx=0;exitDy=0;startArrow=none;startFill=0;endFill=0;" edge="1" parent="1" source="PEIeerV-qxNK25OdBMyH-1" target="PEIeerV-qxNK25OdBMyH-16">
          <mxGeometry width="50" height="50" relative="1" as="geometry">
            <mxPoint x="1098.2842712474594" y="1533.4357287525406" as="sourcePoint" />
            <mxPoint x="1161.7157287525404" y="1470.0042712474597" as="targetPoint" />
          </mxGeometry>
        </mxCell>
        <mxCell id="PEIeerV-qxNK25OdBMyH-23" value="&lt;font style=&quot;font-size: 36px;&quot;&gt;A&lt;/font&gt;" style="ellipse;whiteSpace=wrap;html=1;aspect=fixed;strokeWidth=3;" vertex="1" parent="1">
          <mxGeometry x="970" y="1840" width="80" height="80" as="geometry" />
        </mxCell>
        <mxCell id="PEIeerV-qxNK25OdBMyH-24" value="&lt;font style=&quot;font-size: 36px;&quot;&gt;B&lt;/font&gt;" style="ellipse;whiteSpace=wrap;html=1;aspect=fixed;strokeWidth=3;" vertex="1" parent="1">
          <mxGeometry x="1090" y="1720" width="80" height="80" as="geometry" />
        </mxCell>
        <mxCell id="PEIeerV-qxNK25OdBMyH-25" value="&lt;font style=&quot;font-size: 36px;&quot;&gt;E&lt;/font&gt;" style="ellipse;whiteSpace=wrap;html=1;aspect=fixed;strokeWidth=3;" vertex="1" parent="1">
          <mxGeometry x="1330" y="1720" width="80" height="80" as="geometry" />
        </mxCell>
        <mxCell id="PEIeerV-qxNK25OdBMyH-26" value="&lt;div&gt;&lt;font style=&quot;font-size: 36px;&quot;&gt;C&lt;/font&gt;&lt;/div&gt;" style="ellipse;whiteSpace=wrap;html=1;aspect=fixed;strokeWidth=3;" vertex="1" parent="1">
          <mxGeometry x="1090" y="1960" width="80" height="80" as="geometry" />
        </mxCell>
        <mxCell id="PEIeerV-qxNK25OdBMyH-27" value="9" style="endArrow=none;html=1;rounded=0;fontSize=36;strokeWidth=3;exitX=1;exitY=0;exitDx=0;exitDy=0;entryX=0;entryY=1;entryDx=0;entryDy=0;endFill=0;startArrow=none;startFill=0;" edge="1" parent="1" source="PEIeerV-qxNK25OdBMyH-23" target="PEIeerV-qxNK25OdBMyH-24">
          <mxGeometry width="50" height="50" relative="1" as="geometry">
            <mxPoint x="960" y="1970" as="sourcePoint" />
            <mxPoint x="1080" y="1880" as="targetPoint" />
          </mxGeometry>
        </mxCell>
        <mxCell id="PEIeerV-qxNK25OdBMyH-28" value="" style="endArrow=none;html=1;rounded=0;fontSize=36;exitX=1;exitY=0.5;exitDx=0;exitDy=0;entryX=0;entryY=0.5;entryDx=0;entryDy=0;strokeWidth=3;endFill=0;startArrow=none;startFill=0;" edge="1" parent="1" source="PEIeerV-qxNK25OdBMyH-24" target="PEIeerV-qxNK25OdBMyH-25">
          <mxGeometry width="50" height="50" relative="1" as="geometry">
            <mxPoint x="1130" y="1830" as="sourcePoint" />
            <mxPoint x="1180" y="1780" as="targetPoint" />
          </mxGeometry>
        </mxCell>
        <mxCell id="PEIeerV-qxNK25OdBMyH-29" value="1" style="edgeLabel;html=1;align=center;verticalAlign=middle;resizable=0;points=[];fontSize=36;" vertex="1" connectable="0" parent="PEIeerV-qxNK25OdBMyH-28">
          <mxGeometry x="-0.2" relative="1" as="geometry">
            <mxPoint as="offset" />
          </mxGeometry>
        </mxCell>
        <mxCell id="PEIeerV-qxNK25OdBMyH-30" value="6" style="endArrow=none;html=1;rounded=0;fontSize=36;entryX=1;entryY=1;entryDx=0;entryDy=0;strokeWidth=3;exitX=0;exitY=0;exitDx=0;exitDy=0;startArrow=none;startFill=0;endFill=0;" edge="1" parent="1" source="PEIeerV-qxNK25OdBMyH-26" target="PEIeerV-qxNK25OdBMyH-23">
          <mxGeometry width="50" height="50" relative="1" as="geometry">
            <mxPoint x="1110" y="2030.5" as="sourcePoint" />
            <mxPoint x="1230" y="2030" as="targetPoint" />
          </mxGeometry>
        </mxCell>
        <mxCell id="PEIeerV-qxNK25OdBMyH-31" value="&lt;font style=&quot;font-size: 36px;&quot;&gt;D&lt;/font&gt;" style="ellipse;whiteSpace=wrap;html=1;aspect=fixed;strokeWidth=3;" vertex="1" parent="1">
          <mxGeometry x="1330" y="1960" width="80" height="80" as="geometry" />
        </mxCell>
        <mxCell id="PEIeerV-qxNK25OdBMyH-34" value="" style="endArrow=none;html=1;rounded=0;fontSize=36;entryX=0.5;entryY=1;entryDx=0;entryDy=0;strokeWidth=3;endFill=0;startArrow=none;startFill=0;exitX=0.5;exitY=0;exitDx=0;exitDy=0;" edge="1" parent="1" source="PEIeerV-qxNK25OdBMyH-31" target="PEIeerV-qxNK25OdBMyH-25">
          <mxGeometry width="50" height="50" relative="1" as="geometry">
            <mxPoint x="1261.7157287525379" y="2131.715728752538" as="sourcePoint" />
            <mxPoint x="1168.2842712474621" y="1981.7157287525379" as="targetPoint" />
          </mxGeometry>
        </mxCell>
        <mxCell id="PEIeerV-qxNK25OdBMyH-35" value="6" style="edgeLabel;html=1;align=center;verticalAlign=middle;resizable=0;points=[];fontSize=36;" vertex="1" connectable="0" parent="PEIeerV-qxNK25OdBMyH-34">
          <mxGeometry x="0.067" y="1" relative="1" as="geometry">
            <mxPoint as="offset" />
          </mxGeometry>
        </mxCell>
        <mxCell id="PEIeerV-qxNK25OdBMyH-36" value="&lt;font style=&quot;font-size: 36px;&quot;&gt;A&lt;/font&gt;" style="ellipse;whiteSpace=wrap;html=1;aspect=fixed;strokeWidth=3;" vertex="1" parent="1">
          <mxGeometry x="1210" y="1840" width="80" height="80" as="geometry" />
        </mxCell>
        <mxCell id="PEIeerV-qxNK25OdBMyH-39" value="5" style="endArrow=none;html=1;rounded=0;fontSize=36;entryX=0;entryY=1;entryDx=0;entryDy=0;strokeWidth=3;exitX=1;exitY=0;exitDx=0;exitDy=0;startArrow=none;startFill=0;endFill=0;" edge="1" parent="1" source="PEIeerV-qxNK25OdBMyH-26" target="PEIeerV-qxNK25OdBMyH-36">
          <mxGeometry width="50" height="50" relative="1" as="geometry">
            <mxPoint x="1193.8157287525428" y="1983.0557287525426" as="sourcePoint" />
            <mxPoint x="1130.0046673261863" y="1919.9988475241912" as="targetPoint" />
          </mxGeometry>
        </mxCell>
        <mxCell id="PEIeerV-qxNK25OdBMyH-41" value="3" style="endArrow=none;html=1;rounded=0;fontSize=36;entryX=0;entryY=0.5;entryDx=0;entryDy=0;strokeWidth=3;exitX=1;exitY=0.5;exitDx=0;exitDy=0;startArrow=none;startFill=0;endFill=0;" edge="1" parent="1" source="PEIeerV-qxNK25OdBMyH-23" target="PEIeerV-qxNK25OdBMyH-36">
          <mxGeometry width="50" height="50" relative="1" as="geometry">
            <mxPoint x="1098.2842712474594" y="1893.4357287525406" as="sourcePoint" />
            <mxPoint x="1161.7157287525404" y="1830.0042712474597" as="targetPoint" />
          </mxGeometry>
        </mxCell>
        <mxCell id="PEIeerV-qxNK25OdBMyH-42" value="&lt;font style=&quot;font-size: 36px;&quot;&gt;E&lt;/font&gt;" style="ellipse;whiteSpace=wrap;html=1;aspect=fixed;strokeWidth=3;" vertex="1" parent="1">
          <mxGeometry x="1450" y="1840" width="80" height="80" as="geometry" />
        </mxCell>
        <mxCell id="PEIeerV-qxNK25OdBMyH-43" value="" style="endArrow=none;html=1;rounded=0;fontSize=36;entryX=1;entryY=1;entryDx=0;entryDy=0;strokeWidth=3;endFill=0;startArrow=none;startFill=0;exitX=0;exitY=0;exitDx=0;exitDy=0;" edge="1" parent="1" source="PEIeerV-qxNK25OdBMyH-42" target="PEIeerV-qxNK25OdBMyH-25">
          <mxGeometry width="50" height="50" relative="1" as="geometry">
            <mxPoint x="1430" y="1960" as="sourcePoint" />
            <mxPoint x="1430" y="1800" as="targetPoint" />
          </mxGeometry>
        </mxCell>
        <mxCell id="PEIeerV-qxNK25OdBMyH-44" value="2" style="edgeLabel;html=1;align=center;verticalAlign=middle;resizable=0;points=[];fontSize=36;" vertex="1" connectable="0" parent="PEIeerV-qxNK25OdBMyH-43">
          <mxGeometry x="0.067" y="1" relative="1" as="geometry">
            <mxPoint as="offset" />
          </mxGeometry>
        </mxCell>
        <mxCell id="PEIeerV-qxNK25OdBMyH-45" value="" style="endArrow=none;html=1;rounded=0;fontSize=36;entryX=1;entryY=0;entryDx=0;entryDy=0;strokeWidth=3;endFill=0;startArrow=none;startFill=0;exitX=0;exitY=1;exitDx=0;exitDy=0;" edge="1" parent="1" source="PEIeerV-qxNK25OdBMyH-42" target="PEIeerV-qxNK25OdBMyH-31">
          <mxGeometry width="50" height="50" relative="1" as="geometry">
            <mxPoint x="1463.435728752543" y="2013.4357287525427" as="sourcePoint" />
            <mxPoint x="1400.0042712474574" y="1950.0042712474574" as="targetPoint" />
          </mxGeometry>
        </mxCell>
        <mxCell id="PEIeerV-qxNK25OdBMyH-46" value="4" style="edgeLabel;html=1;align=center;verticalAlign=middle;resizable=0;points=[];fontSize=36;" vertex="1" connectable="0" parent="PEIeerV-qxNK25OdBMyH-45">
          <mxGeometry x="0.067" y="1" relative="1" as="geometry">
            <mxPoint as="offset" />
          </mxGeometry>
        </mxCell>
        <mxCell id="PEIeerV-qxNK25OdBMyH-47" value="8" style="endArrow=none;html=1;rounded=0;fontSize=36;entryX=0;entryY=0.5;entryDx=0;entryDy=0;strokeWidth=3;exitX=1;exitY=0.5;exitDx=0;exitDy=0;startArrow=none;startFill=0;endFill=0;" edge="1" parent="1" source="PEIeerV-qxNK25OdBMyH-26" target="PEIeerV-qxNK25OdBMyH-31">
          <mxGeometry width="50" height="50" relative="1" as="geometry">
            <mxPoint x="1210.0042712474597" y="2013.4357287525406" as="sourcePoint" />
            <mxPoint x="1273.4357287525404" y="1950.0042712474597" as="targetPoint" />
          </mxGeometry>
        </mxCell>
        <mxCell id="PEIeerV-qxNK25OdBMyH-48" value="&lt;font style=&quot;font-size: 36px;&quot;&gt;A&lt;/font&gt;" style="ellipse;whiteSpace=wrap;html=1;aspect=fixed;strokeWidth=3;" vertex="1" parent="1">
          <mxGeometry x="120" y="1640" width="80" height="80" as="geometry" />
        </mxCell>
        <mxCell id="PEIeerV-qxNK25OdBMyH-49" value="&lt;font style=&quot;font-size: 36px;&quot;&gt;B&lt;/font&gt;" style="ellipse;whiteSpace=wrap;html=1;aspect=fixed;strokeWidth=3;" vertex="1" parent="1">
          <mxGeometry x="240" y="1520" width="80" height="80" as="geometry" />
        </mxCell>
        <mxCell id="PEIeerV-qxNK25OdBMyH-50" value="&lt;font style=&quot;font-size: 36px;&quot;&gt;E&lt;/font&gt;" style="ellipse;whiteSpace=wrap;html=1;aspect=fixed;strokeWidth=3;" vertex="1" parent="1">
          <mxGeometry x="480" y="1520" width="80" height="80" as="geometry" />
        </mxCell>
        <mxCell id="PEIeerV-qxNK25OdBMyH-51" value="&lt;div&gt;&lt;font style=&quot;font-size: 36px;&quot;&gt;C&lt;/font&gt;&lt;/div&gt;" style="ellipse;whiteSpace=wrap;html=1;aspect=fixed;strokeWidth=3;" vertex="1" parent="1">
          <mxGeometry x="240" y="1760" width="80" height="80" as="geometry" />
        </mxCell>
        <mxCell id="PEIeerV-qxNK25OdBMyH-52" value="8" style="endArrow=none;html=1;rounded=0;fontSize=36;strokeWidth=3;exitX=1;exitY=0;exitDx=0;exitDy=0;entryX=0;entryY=1;entryDx=0;entryDy=0;endFill=0;startArrow=none;startFill=0;" edge="1" parent="1" source="PEIeerV-qxNK25OdBMyH-48" target="PEIeerV-qxNK25OdBMyH-49">
          <mxGeometry width="50" height="50" relative="1" as="geometry">
            <mxPoint x="110" y="1770" as="sourcePoint" />
            <mxPoint x="230" y="1680" as="targetPoint" />
          </mxGeometry>
        </mxCell>
        <mxCell id="PEIeerV-qxNK25OdBMyH-53" value="" style="endArrow=none;html=1;rounded=0;fontSize=36;exitX=1;exitY=0.5;exitDx=0;exitDy=0;entryX=0;entryY=0.5;entryDx=0;entryDy=0;strokeWidth=3;endFill=0;startArrow=none;startFill=0;" edge="1" parent="1" source="PEIeerV-qxNK25OdBMyH-49" target="PEIeerV-qxNK25OdBMyH-50">
          <mxGeometry width="50" height="50" relative="1" as="geometry">
            <mxPoint x="280" y="1630" as="sourcePoint" />
            <mxPoint x="330" y="1580" as="targetPoint" />
          </mxGeometry>
        </mxCell>
        <mxCell id="PEIeerV-qxNK25OdBMyH-54" value="9" style="edgeLabel;html=1;align=center;verticalAlign=middle;resizable=0;points=[];fontSize=36;" vertex="1" connectable="0" parent="PEIeerV-qxNK25OdBMyH-53">
          <mxGeometry x="-0.2" relative="1" as="geometry">
            <mxPoint as="offset" />
          </mxGeometry>
        </mxCell>
        <mxCell id="PEIeerV-qxNK25OdBMyH-55" value="3" style="endArrow=none;html=1;rounded=0;fontSize=36;entryX=1;entryY=1;entryDx=0;entryDy=0;strokeWidth=3;exitX=0;exitY=0;exitDx=0;exitDy=0;startArrow=none;startFill=0;endFill=0;" edge="1" parent="1" source="PEIeerV-qxNK25OdBMyH-51" target="PEIeerV-qxNK25OdBMyH-48">
          <mxGeometry width="50" height="50" relative="1" as="geometry">
            <mxPoint x="260" y="1830.5" as="sourcePoint" />
            <mxPoint x="380" y="1830" as="targetPoint" />
          </mxGeometry>
        </mxCell>
        <mxCell id="PEIeerV-qxNK25OdBMyH-56" value="&lt;font style=&quot;font-size: 36px;&quot;&gt;D&lt;/font&gt;" style="ellipse;whiteSpace=wrap;html=1;aspect=fixed;strokeWidth=3;" vertex="1" parent="1">
          <mxGeometry x="480" y="1760" width="80" height="80" as="geometry" />
        </mxCell>
        <mxCell id="PEIeerV-qxNK25OdBMyH-57" value="" style="endArrow=none;html=1;rounded=0;fontSize=36;entryX=0.5;entryY=1;entryDx=0;entryDy=0;strokeWidth=3;endFill=0;startArrow=none;startFill=0;exitX=0.5;exitY=0;exitDx=0;exitDy=0;" edge="1" parent="1" source="PEIeerV-qxNK25OdBMyH-56" target="PEIeerV-qxNK25OdBMyH-50">
          <mxGeometry width="50" height="50" relative="1" as="geometry">
            <mxPoint x="411.71572875253787" y="1931.7157287525379" as="sourcePoint" />
            <mxPoint x="318.28427124746213" y="1781.7157287525379" as="targetPoint" />
          </mxGeometry>
        </mxCell>
        <mxCell id="PEIeerV-qxNK25OdBMyH-58" value="4" style="edgeLabel;html=1;align=center;verticalAlign=middle;resizable=0;points=[];fontSize=36;" vertex="1" connectable="0" parent="PEIeerV-qxNK25OdBMyH-57">
          <mxGeometry x="0.067" y="1" relative="1" as="geometry">
            <mxPoint as="offset" />
          </mxGeometry>
        </mxCell>
        <mxCell id="PEIeerV-qxNK25OdBMyH-59" value="&lt;font style=&quot;font-size: 36px;&quot;&gt;A&lt;/font&gt;" style="ellipse;whiteSpace=wrap;html=1;aspect=fixed;strokeWidth=3;" vertex="1" parent="1">
          <mxGeometry x="360" y="1640" width="80" height="80" as="geometry" />
        </mxCell>
        <mxCell id="PEIeerV-qxNK25OdBMyH-61" value="6" style="endArrow=none;html=1;rounded=0;fontSize=36;entryX=0;entryY=0.5;entryDx=0;entryDy=0;strokeWidth=3;exitX=1;exitY=0.5;exitDx=0;exitDy=0;startArrow=none;startFill=0;endFill=0;" edge="1" parent="1" source="PEIeerV-qxNK25OdBMyH-48" target="PEIeerV-qxNK25OdBMyH-59">
          <mxGeometry width="50" height="50" relative="1" as="geometry">
            <mxPoint x="248.28427124745951" y="1693.4357287525406" as="sourcePoint" />
            <mxPoint x="311.7157287525404" y="1630.0042712474597" as="targetPoint" />
          </mxGeometry>
        </mxCell>
        <mxCell id="PEIeerV-qxNK25OdBMyH-62" value="&lt;font style=&quot;font-size: 36px;&quot;&gt;E&lt;/font&gt;" style="ellipse;whiteSpace=wrap;html=1;aspect=fixed;strokeWidth=3;" vertex="1" parent="1">
          <mxGeometry x="600" y="1640" width="80" height="80" as="geometry" />
        </mxCell>
        <mxCell id="PEIeerV-qxNK25OdBMyH-63" value="" style="endArrow=none;html=1;rounded=0;fontSize=36;entryX=1;entryY=1;entryDx=0;entryDy=0;strokeWidth=3;endFill=0;startArrow=none;startFill=0;exitX=0;exitY=0;exitDx=0;exitDy=0;" edge="1" parent="1" source="PEIeerV-qxNK25OdBMyH-62" target="PEIeerV-qxNK25OdBMyH-50">
          <mxGeometry width="50" height="50" relative="1" as="geometry">
            <mxPoint x="580" y="1760" as="sourcePoint" />
            <mxPoint x="580" y="1600" as="targetPoint" />
          </mxGeometry>
        </mxCell>
        <mxCell id="PEIeerV-qxNK25OdBMyH-64" value="1" style="edgeLabel;html=1;align=center;verticalAlign=middle;resizable=0;points=[];fontSize=36;" vertex="1" connectable="0" parent="PEIeerV-qxNK25OdBMyH-63">
          <mxGeometry x="0.067" y="1" relative="1" as="geometry">
            <mxPoint as="offset" />
          </mxGeometry>
        </mxCell>
        <mxCell id="PEIeerV-qxNK25OdBMyH-65" value="" style="endArrow=none;html=1;rounded=0;fontSize=36;entryX=1;entryY=0;entryDx=0;entryDy=0;strokeWidth=3;endFill=0;startArrow=none;startFill=0;exitX=0;exitY=1;exitDx=0;exitDy=0;" edge="1" parent="1" source="PEIeerV-qxNK25OdBMyH-62" target="PEIeerV-qxNK25OdBMyH-56">
          <mxGeometry width="50" height="50" relative="1" as="geometry">
            <mxPoint x="613.4357287525429" y="1813.4357287525427" as="sourcePoint" />
            <mxPoint x="550.0042712474574" y="1750.0042712474574" as="targetPoint" />
          </mxGeometry>
        </mxCell>
        <mxCell id="PEIeerV-qxNK25OdBMyH-66" value="2" style="edgeLabel;html=1;align=center;verticalAlign=middle;resizable=0;points=[];fontSize=36;" vertex="1" connectable="0" parent="PEIeerV-qxNK25OdBMyH-65">
          <mxGeometry x="0.067" y="1" relative="1" as="geometry">
            <mxPoint as="offset" />
          </mxGeometry>
        </mxCell>
        <mxCell id="PEIeerV-qxNK25OdBMyH-67" value="7" style="endArrow=none;html=1;rounded=0;fontSize=36;entryX=0;entryY=0.5;entryDx=0;entryDy=0;strokeWidth=3;exitX=1;exitY=0.5;exitDx=0;exitDy=0;startArrow=none;startFill=0;endFill=0;" edge="1" parent="1" source="PEIeerV-qxNK25OdBMyH-51" target="PEIeerV-qxNK25OdBMyH-56">
          <mxGeometry width="50" height="50" relative="1" as="geometry">
            <mxPoint x="360.00427124745954" y="1813.4357287525406" as="sourcePoint" />
            <mxPoint x="423.4357287525404" y="1750.0042712474597" as="targetPoint" />
          </mxGeometry>
        </mxCell>
        <mxCell id="PEIeerV-qxNK25OdBMyH-68" value="" style="endArrow=none;html=1;rounded=0;fontSize=36;entryX=0;entryY=1;entryDx=0;entryDy=0;strokeWidth=3;endFill=0;startArrow=none;startFill=0;exitX=1;exitY=0;exitDx=0;exitDy=0;" edge="1" parent="1" source="PEIeerV-qxNK25OdBMyH-59" target="PEIeerV-qxNK25OdBMyH-50">
          <mxGeometry width="50" height="50" relative="1" as="geometry">
            <mxPoint x="530" y="1770" as="sourcePoint" />
            <mxPoint x="530" y="1610" as="targetPoint" />
          </mxGeometry>
        </mxCell>
        <mxCell id="PEIeerV-qxNK25OdBMyH-69" value="5" style="edgeLabel;html=1;align=center;verticalAlign=middle;resizable=0;points=[];fontSize=36;" vertex="1" connectable="0" parent="PEIeerV-qxNK25OdBMyH-68">
          <mxGeometry x="0.067" y="1" relative="1" as="geometry">
            <mxPoint as="offset" />
          </mxGeometry>
        </mxCell>
        <mxCell id="PEIeerV-qxNK25OdBMyH-70" value="" style="endArrow=none;html=1;rounded=0;fontSize=36;entryX=1;entryY=1;entryDx=0;entryDy=0;strokeWidth=3;endFill=0;startArrow=none;startFill=0;exitX=0;exitY=0;exitDx=0;exitDy=0;" edge="1" parent="1" source="PEIeerV-qxNK25OdBMyH-56" target="PEIeerV-qxNK25OdBMyH-59">
          <mxGeometry width="50" height="50" relative="1" as="geometry">
            <mxPoint x="440" y="1880" as="sourcePoint" />
            <mxPoint x="440" y="1720" as="targetPoint" />
          </mxGeometry>
        </mxCell>
        <mxCell id="PEIeerV-qxNK25OdBMyH-71" value="6" style="edgeLabel;html=1;align=center;verticalAlign=middle;resizable=0;points=[];fontSize=36;" vertex="1" connectable="0" parent="PEIeerV-qxNK25OdBMyH-70">
          <mxGeometry x="0.067" y="1" relative="1" as="geometry">
            <mxPoint as="offset" />
          </mxGeometry>
        </mxCell>
        <mxCell id="PEIeerV-qxNK25OdBMyH-72" value="&lt;div align=&quot;left&quot;&gt;Using Kruskal&#39;s algorithm, find the minimum spanning tree of this fully connected and weighted graph.&lt;br&gt;&lt;br&gt;During this procedure, how many times do you encounter a cycle before you find the MST?&lt;/div&gt;&lt;div align=&quot;left&quot;&gt;&lt;br&gt;&lt;/div&gt;&lt;div align=&quot;left&quot;&gt;A) 0&lt;/div&gt;&lt;div align=&quot;left&quot;&gt;B) 1&lt;/div&gt;&lt;div align=&quot;left&quot;&gt;C) 2&lt;/div&gt;&lt;div align=&quot;left&quot;&gt;D) 3&lt;br&gt;&lt;/div&gt;" style="text;html=1;strokeColor=none;fillColor=none;align=left;verticalAlign=middle;whiteSpace=wrap;rounded=0;fontSize=24;" vertex="1" parent="1">
          <mxGeometry x="80" y="1160" width="610" height="320" as="geometry" />
        </mxCell>
      </root>
    </mxGraphModel>
  </diagram>
</mxfile>
